# MagicaVoxel @ Ephtracy

# group
o 

# material
mtllib untitled-2.mtl
usemtl palette

# normals
vn -1 0 0
vn 1 0 0
vn 0 0 1
vn 0 0 -1
vn 0 -1 0
vn 0 1 0

# texcoords
vt 0.974609 0.5
vt 0.978516 0.5
vt 0.990234 0.5

# verts
v -1.9 3 0.1
v -1.9 3 -0.3
v -1.9 3.4 0.1
v -1.9 3.4 -0.3
v -0.7 3 0.1
v -0.7 3 -0.3
v -0.7 3.4 0.1
v -0.7 3.4 -0.3
v -1.9 3 0.1
v -1.9 3.4 0.1
v -1.1 3 0.1
v -1.1 3.4 0.1
v -0.7 3 0.1
v -0.7 3.4 0.1
v -1.9 3 -0.3
v -1.9 3.4 -0.3
v -1.1 3 -0.3
v -1.1 3.4 -0.3
v -0.7 3 -0.3
v -0.7 3.4 -0.3
v -1.9 3 0.1
v -1.1 3 0.1
v -0.7 3 0.1
v -1.9 3 -0.3
v -1.1 3 -0.3
v -0.7 3 -0.3
v -1.9 3.4 0.1
v -1.1 3.4 0.1
v -0.7 3.4 0.1
v -1.9 3.4 -0.3
v -1.1 3.4 -0.3
v -0.7 3.4 -0.3

# faces
f 3/2/1 2/2/1 1/2/1
f 4/2/1 2/2/1 3/2/1
f 5/3/2 6/3/2 7/3/2
f 7/3/2 6/3/2 8/3/2
f 11/2/3 10/2/3 9/2/3
f 12/2/3 10/2/3 11/2/3
f 13/3/3 12/3/3 11/3/3
f 14/3/3 12/3/3 13/3/3
f 15/2/4 16/2/4 17/2/4
f 17/2/4 16/2/4 18/2/4
f 17/3/4 18/3/4 19/3/4
f 19/3/4 18/3/4 20/3/4
f 24/2/5 22/2/5 21/2/5
f 25/3/5 23/3/5 22/3/5
f 25/2/5 22/2/5 24/2/5
f 26/3/5 23/3/5 25/3/5
f 27/2/6 28/2/6 30/2/6
f 28/3/6 29/3/6 31/3/6
f 30/2/6 28/2/6 31/2/6
f 31/3/6 29/3/6 32/3/6
