# MagicaVoxel @ Ephtracy

# group
o 

# material
mtllib untitled-4.mtl
usemtl palette

# normals
vn -1 0 0
vn 1 0 0
vn 0 0 1
vn 0 0 -1
vn 0 -1 0
vn 0 1 0

# texcoords
vt 0.974609 0.5
vt 0.978516 0.5
vt 0.982422 0.5
vt 0.986328 0.5
vt 0.990234 0.5
vt 0.994141 0.5

# verts
v -0.5 2.2 0.1
v -0.5 2.2 -0.3
v -0.5 3.4 0.3
v -0.5 3.4 0.1
v -0.5 3.4 -0.3
v -0.5 3.4 -0.5
v -0.5 3.6 -0.3
v -0.5 3.6 -0.5
v -0.5 3.7 -0.1
v -0.5 3.7 -0.3
v -0.5 3.8 0.2
v -0.5 3.8 -0.1
v -0.5 3.9 0.3
v -0.5 3.9 0.2
v -0.5 4.1 0.3
v -0.5 4.1 0.2
v -0.5 4.2 0.3
v -0.5 4.2 -0.5
v 0.3 2.2 0.1
v 0.3 2.2 -0.3
v 0.3 3.4 0.3
v 0.3 3.4 0.1
v 0.3 3.4 -0.3
v 0.3 3.4 -0.5
v 0.3 3.6 -0.3
v 0.3 3.6 -0.5
v 0.3 3.7 -0.1
v 0.3 3.7 -0.3
v 0.3 3.8 0.2
v 0.3 3.8 -0.1
v 0.3 3.9 0.3
v 0.3 3.9 0.2
v 0.3 4.1 0.3
v 0.3 4.1 0.2
v 0.3 4.2 0.3
v 0.3 4.2 -0.5
v -0.5 3.4 0.3
v -0.5 3.9 0.3
v -0.5 4.1 0.3
v -0.5 4.2 0.3
v -0.4 3.9 0.3
v -0.4 4.1 0.3
v -0.3 3.8 0.3
v -0.3 3.9 0.3
v -0.3 4.1 0.3
v -0.2 3.7 0.3
v -0.2 3.8 0.3
v -0.1 3.7 0.3
v -0.1 3.8 0.3
v 0.1 3.7 0.3
v 0.1 3.8 0.3
v 0.1 3.9 0.3
v 0.1 4.1 0.3
v 0.2 3.9 0.3
v 0.2 4.1 0.3
v 0.3 3.4 0.3
v 0.3 3.9 0.3
v 0.3 4.1 0.3
v 0.3 4.2 0.3
v -0.5 2.2 0.1
v -0.5 3.4 0.1
v 0.3 2.2 0.1
v 0.3 3.4 0.1
v -0.5 2.2 -0.3
v -0.5 3.4 -0.3
v 0.3 2.2 -0.3
v 0.3 3.4 -0.3
v -0.5 3.4 -0.5
v -0.5 3.6 -0.5
v -0.5 4.2 -0.5
v 0.3 3.4 -0.5
v 0.3 3.6 -0.5
v 0.3 4.2 -0.5
v -0.5 2.2 0.1
v 0.3 2.2 0.1
v -0.5 2.2 -0.3
v 0.3 2.2 -0.3
v -0.5 3.4 0.3
v 0.3 3.4 0.3
v -0.5 3.4 0.1
v 0.3 3.4 0.1
v -0.5 3.4 -0.3
v 0.3 3.4 -0.3
v -0.5 3.4 -0.5
v 0.3 3.4 -0.5
v -0.5 4.2 0.3
v 0.3 4.2 0.3
v -0.5 4.2 -0.5
v 0.3 4.2 -0.5

# faces
f 4/5/1 2/5/1 1/5/1
f 5/5/1 2/5/1 4/5/1
f 7/2/1 4/2/1 3/2/1
f 7/2/1 6/2/1 5/2/1
f 7/2/1 5/2/1 4/2/1
f 8/2/1 6/2/1 7/2/1
f 9/2/1 7/2/1 3/2/1
f 10/6/1 8/6/1 7/6/1
f 10/2/1 7/2/1 9/2/1
f 11/2/1 9/2/1 3/2/1
f 12/6/1 10/6/1 9/6/1
f 12/2/1 9/2/1 11/2/1
f 13/2/1 11/2/1 3/2/1
f 14/6/1 12/6/1 11/6/1
f 14/2/1 11/2/1 13/2/1
f 15/3/1 14/3/1 13/3/1
f 16/6/1 12/6/1 14/6/1
f 16/3/1 14/3/1 15/3/1
f 17/6/1 16/6/1 15/6/1
f 18/6/1 8/6/1 10/6/1
f 18/6/1 16/6/1 17/6/1
f 18/6/1 10/6/1 12/6/1
f 18/6/1 12/6/1 16/6/1
f 19/5/2 20/5/2 22/5/2
f 22/5/2 20/5/2 23/5/2
f 21/2/2 22/2/2 25/2/2
f 23/2/2 24/2/2 25/2/2
f 22/2/2 23/2/2 25/2/2
f 25/2/2 24/2/2 26/2/2
f 21/2/2 25/2/2 27/2/2
f 25/6/2 26/6/2 28/6/2
f 27/2/2 25/2/2 28/2/2
f 21/2/2 27/2/2 29/2/2
f 27/6/2 28/6/2 30/6/2
f 29/2/2 27/2/2 30/2/2
f 21/2/2 29/2/2 31/2/2
f 29/6/2 30/6/2 32/6/2
f 31/2/2 29/2/2 32/2/2
f 31/3/2 32/3/2 33/3/2
f 32/6/2 30/6/2 34/6/2
f 33/3/2 32/3/2 34/3/2
f 33/6/2 34/6/2 35/6/2
f 28/6/2 26/6/2 36/6/2
f 35/6/2 34/6/2 36/6/2
f 30/6/2 28/6/2 36/6/2
f 34/6/2 30/6/2 36/6/2
f 41/2/3 38/2/3 37/2/3
f 41/3/3 39/3/3 38/3/3
f 42/6/3 40/6/3 39/6/3
f 42/3/3 39/3/3 41/3/3
f 43/2/3 41/2/3 37/2/3
f 44/4/3 42/4/3 41/4/3
f 44/2/3 41/2/3 43/2/3
f 45/6/3 40/6/3 42/6/3
f 45/4/3 42/4/3 44/4/3
f 46/2/3 43/2/3 37/2/3
f 47/4/3 44/4/3 43/4/3
f 47/2/3 43/2/3 46/2/3
f 48/2/3 46/2/3 37/2/3
f 48/4/3 47/4/3 46/4/3
f 49/4/3 44/4/3 47/4/3
f 49/4/3 47/4/3 48/4/3
f 50/2/3 48/2/3 37/2/3
f 50/5/3 49/5/3 48/5/3
f 51/4/3 44/4/3 49/4/3
f 51/5/3 49/5/3 50/5/3
f 52/2/3 45/2/3 44/2/3
f 52/4/3 44/4/3 51/4/3
f 53/6/3 40/6/3 45/6/3
f 53/2/3 45/2/3 52/2/3
f 54/2/3 52/2/3 51/2/3
f 54/2/3 51/2/3 50/2/3
f 54/4/3 53/4/3 52/4/3
f 55/6/3 40/6/3 53/6/3
f 55/4/3 53/4/3 54/4/3
f 56/2/3 50/2/3 37/2/3
f 56/2/3 54/2/3 50/2/3
f 57/3/3 55/3/3 54/3/3
f 57/2/3 54/2/3 56/2/3
f 58/6/3 40/6/3 55/6/3
f 58/3/3 55/3/3 57/3/3
f 59/6/3 40/6/3 58/6/3
f 62/5/3 61/5/3 60/5/3
f 63/5/3 61/5/3 62/5/3
f 64/5/4 65/5/4 66/5/4
f 66/5/4 65/5/4 67/5/4
f 68/2/4 69/2/4 71/2/4
f 69/6/4 70/6/4 72/6/4
f 71/2/4 69/2/4 72/2/4
f 72/6/4 70/6/4 73/6/4
f 76/5/5 75/5/5 74/5/5
f 77/5/5 75/5/5 76/5/5
f 80/2/5 79/2/5 78/2/5
f 81/2/5 79/2/5 80/2/5
f 84/2/5 83/2/5 82/2/5
f 85/2/5 83/2/5 84/2/5
f 86/6/6 87/6/6 88/6/6
f 88/6/6 87/6/6 89/6/6
